<?xml version="1.0" encoding="UTF-8"?>
<svg version="1.1" xmlns="http://www.w3.org/2000/svg" width="500" height="500">
<path d="M0 0 C165 0 330 0 500 0 C500 165 500 330 500 500 C335 500 170 500 0 500 C0 335 0 170 0 0 Z " fill="#FF3364" transform="translate(0,0)"/>
<path d="M0 0 C1.18207031 0.03544922 2.36414063 0.07089844 3.58203125 0.10742188 C22.15909733 0.79356489 22.15909733 0.79356489 28 4.6875 C28.29648437 5.35523438 28.59296875 6.02296875 28.8984375 6.7109375 C29.8401059 8.87072162 29.8401059 8.87072162 32.1015625 9.6015625 C32.93429687 9.83617188 33.76703125 10.07078125 34.625 10.3125 C40.22927215 12.34384793 42.51077039 15.43798977 45.9296875 20.171875 C48.12212516 22.83589359 50.22836586 24.39961282 53.125 26.25 C57.50529554 29.10119847 59.83186355 31.91215696 62.50390625 36.35546875 C64.69195315 39.76607971 67.38457732 42.63380453 70.11328125 45.6171875 C71.71497499 47.37473964 73.24655232 49.15885484 74.75 51 C76.8563813 53.62781026 76.8563813 53.62781026 78.93847656 55.49536133 C82.93130648 59.74117135 85.15005777 65.20654341 87.75 70.375 C88.35199219 71.52162109 88.95398438 72.66824219 89.57421875 73.84960938 C92.75699892 80.15382362 95.46086967 85.55330725 94 92.6875 C89.96318814 104.32593912 82.43470658 115.3769953 72.375 122.5625 C68.59944306 125.94062989 66.4861895 130.32026389 64 134.6875 C62 137.6875 62 137.6875 59.890625 138.1796875 C59.01921875 138.30601562 58.1478125 138.43234375 57.25 138.5625 C48.1722151 140.75078722 40.09213881 149.04929178 35 156.6875 C34.071875 156.625625 33.14375 156.56375 32.1875 156.5 C31.135625 156.561875 30.08375 156.62375 29 156.6875 C27.7385369 158.14303435 26.48242684 159.60752681 25.33203125 161.15234375 C22.53402203 164.37702887 18.86045529 165.45734058 14.7265625 165.96875 C10.03431761 166.15581624 6.71246918 165.83747385 3 162.6875 C1.9375 160.75 1.9375 160.75 1 158.6875 C0.278125 158.130625 -0.44375 157.57375 -1.1875 157 C-3 154.6875 -3 154.6875 -3.25 150.9375 C-2.26182222 144.64436781 1.06111528 139.1695655 3.98828125 133.59765625 C6.34620589 129.09497122 8.25636134 124.4595637 10 119.6875 C9.21625 120.491875 8.4325 121.29625 7.625 122.125 C5 124.6875 5 124.6875 3 125.6875 C4.23973166 121.64297228 5.71459093 118.15513201 7.87109375 114.51953125 C8.72537964 113.06873169 8.72537964 113.06873169 9.59692383 111.58862305 C10.20431396 110.56937744 10.8117041 109.55013184 11.4375 108.5 C12.70074049 106.35690029 13.96375828 104.21366931 15.2265625 102.0703125 C16.17450684 100.46784668 16.17450684 100.46784668 17.14160156 98.83300781 C19.88402265 94.19121153 22.60279416 89.53595006 25.3125 84.875 C25.77390381 84.08778564 26.23530762 83.30057129 26.71069336 82.48950195 C27.34309937 81.40221802 27.34309937 81.40221802 27.98828125 80.29296875 C28.35477783 79.66543701 28.72127441 79.03790527 29.09887695 78.39135742 C30.1448154 76.52635925 30.1448154 76.52635925 31 73.6875 C15.35036685 75.4184978 2.71378356 85.44280164 -7.8203125 96.53515625 C-9.63483637 98.32691727 -11.47673109 99.97460982 -13.41015625 101.6328125 C-19.60196632 107.01882927 -25.47171048 112.73853315 -31.3125 118.5 C-32.21683273 119.39165863 -32.21683273 119.39165863 -33.13943481 120.30133057 C-41.4840873 128.58571325 -48.65670694 136.71716364 -54.15234375 147.2109375 C-56 150.6875 -56 150.6875 -58.26171875 153.51171875 C-60.27767834 155.54177153 -60.27767834 155.54177153 -59.875 158.125 C-59.58625 158.970625 -59.2975 159.81625 -59 160.6875 C-58.835 161.71875 -58.67 162.75 -58.5 163.8125 C-57.35210377 166.79772889 -57.35210377 166.79772889 -55.11328125 167.3828125 C-54.35402344 167.56585938 -53.59476562 167.74890625 -52.8125 167.9375 C-48.40094575 169.106912 -47.03318343 170.62326704 -44.6875 174.5 C-40.69119908 180.82442118 -35.7161068 182.81825201 -29 185.6875 C-19.41910631 190.10860284 -11.07422193 195.10591142 -2.67285156 201.43212891 C-1.06184189 202.64109151 0.56645421 203.82691352 2.1953125 205.01171875 C19.790245 217.90416929 35.79792159 232.85917098 41 254.6875 C42.95327428 267.4549286 43.45776626 279.77470121 38 291.6875 C37.68417969 292.64785156 37.36835938 293.60820312 37.04296875 294.59765625 C34.28509382 302.60272392 29.96813697 307.31427695 23.91015625 312.9453125 C21.56797307 315.15230926 19.56592815 317.31198066 17.5625 319.8125 C12.81445912 325.33110599 6.87796093 329.46379821 1 333.6875 C0.28199219 334.20538086 -0.43601562 334.72326172 -1.17578125 335.25683594 C-21.64436422 349.91087681 -41.79518477 359.08072661 -66 365.6875 C-67.08410156 366.0484375 -68.16820312 366.409375 -69.28515625 366.78125 C-73.8737359 367.90065113 -78.10943482 367.98930855 -82.8125 367.9375 C-83.70106689 367.93000732 -84.58963379 367.92251465 -85.50512695 367.91479492 C-99.92209146 367.67784362 -108.54534562 364.2300007 -119.05273438 354.20288086 C-124.44944943 349.11248878 -130.35642445 344.7888212 -136.3359375 340.4140625 C-146.42594439 332.98775439 -154.07529771 324.12886482 -161 313.6875 C-161.44118164 313.03241455 -161.88236328 312.3773291 -162.33691406 311.70239258 C-166.00574376 305.80084402 -166.72127392 301.12457844 -166.5 294.25 C-166.50257813 293.37279297 -166.50515625 292.49558594 -166.5078125 291.59179688 C-166.4138997 285.21981318 -165.10918061 279.6852808 -163 273.6875 C-161.35 273.3575 -159.7 273.0275 -158 272.6875 C-157.57589844 273.58210938 -157.15179688 274.47671875 -156.71484375 275.3984375 C-151.83647859 285.52459196 -146.94751137 294.61272357 -138 301.6875 C-136.625 304 -136.625 304 -136 305.6875 C-135.50757813 305.52636719 -135.01515625 305.36523438 -134.5078125 305.19921875 C-131.70930006 304.62818272 -129.01226278 304.59251982 -126.16357422 304.55029297 C-111.46549888 304.22729281 -98.78783304 299.19884501 -85.55737305 293.14501953 C-81.81362397 291.43307991 -78.13445745 290.08916181 -74.1875 288.9375 C-68.20249818 286.89119075 -64.49324836 282.68163267 -60.3125 278.1484375 C-58 275.6875 -58 275.6875 -55 273.6875 C-52.30078125 273.7109375 -52.30078125 273.7109375 -49.3125 274.0625 C-48.31863281 274.17335938 -47.32476562 274.28421875 -46.30078125 274.3984375 C-45.16189453 274.54152344 -45.16189453 274.54152344 -44 274.6875 C-42.68462636 272.25151192 -41.37260857 269.8138175 -40.0625 267.375 C-39.50272461 266.33956055 -39.50272461 266.33956055 -38.93164062 265.28320312 C-38.57392578 264.61611328 -38.21621094 263.94902344 -37.84765625 263.26171875 C-37.51773682 262.64901123 -37.18781738 262.03630371 -36.84790039 261.4050293 C-34.87975296 257.41829818 -34.91736061 254.06738768 -35 249.6875 C-39.35415514 247.08324172 -43.44498046 244.73018143 -48.375 243.4375 C-53.53439923 241.85409817 -56.8988624 238.62446854 -60.92578125 235.13671875 C-64.23965229 232.4965699 -67.63717507 230.45565721 -71.3125 228.375 C-83.28850803 221.44834414 -92.7778798 212.84044801 -100.81640625 201.59765625 C-104.57403308 196.58972783 -108.83206212 192.94073124 -113.9375 189.41015625 C-119.77924599 184.53097068 -121.99149338 179.83866816 -124.0625 172.6875 C-125.93063922 166.19637933 -125.93063922 166.19637933 -129.20703125 160.34765625 C-131.62736094 156.75670958 -130.75425129 154.83588207 -130 150.6875 C-130.6590841 149.01782028 -131.32650839 147.35142045 -132 145.6875 C-132.71073123 139.05457939 -131.36649584 133.41025881 -129.1875 127.1875 C-128.92646484 126.37796875 -128.66542969 125.5684375 -128.39648438 124.734375 C-126.89677146 120.32040515 -126.89677146 120.32040515 -126 118.6875 C-125.01 118.3575 -124.02 118.0275 -123 117.6875 C-122.67 117.0275 -122.34 116.3675 -122 115.6875 C-123.32 115.6875 -124.64 115.6875 -126 115.6875 C-125.505 114.2025 -125.505 114.2025 -125 112.6875 C-122.69 113.0175 -120.38 113.3475 -118 113.6875 C-117.67 113.0275 -117.34 112.3675 -117 111.6875 C-117.99 111.6875 -118.98 111.6875 -120 111.6875 C-118.4565826 107.47905131 -115.63221861 105.6822166 -112.0625 103.125 C-104.73505198 98.01292057 -104.73505198 98.01292057 -101.3125 90.125 C-96.86906532 76.17194186 -84.54376988 67.5957859 -73.48046875 58.86328125 C-69.83796541 55.66820351 -66.73019244 52.61629896 -66 47.6875 C-71.39775836 49.4545658 -74.57598333 52.81845467 -78.59765625 56.69140625 C-80.87846276 58.5865154 -82.11221559 59.30735286 -85 59.6875 C-83.58928998 54.84700124 -80.68826948 52.2118373 -77 49 C-75.81343609 47.93936317 -74.62855752 46.87683811 -73.4453125 45.8125 C-72.85911133 45.2865625 -72.27291016 44.760625 -71.66894531 44.21875 C-69.31805044 42.06181427 -67.09819641 39.78753328 -64.875 37.5 C-60.72596553 33.29725634 -56.32660267 29.58065395 -51.7109375 25.90234375 C-49.08162847 23.7541907 -46.60610105 21.50399726 -44.125 19.1875 C-30.7882039 7.07853592 -18.11715741 -0.70273777 0 0 Z " fill="#FFF6DA" transform="translate(285,55.3125)"/>
<path d="M0 0 C-0.1871317 3.81887293 -0.95907878 4.95977928 -3.73828125 7.69140625 C-4.92160264 8.65841615 -6.11359274 9.61488244 -7.3125 10.5625 C-8.59936467 11.62657797 -9.88316432 12.69437225 -11.1640625 13.765625 C-12.13327637 14.57483398 -12.13327637 14.57483398 -13.12207031 15.40039062 C-21.40567402 22.45631515 -28.27944381 30.21989531 -34.4362793 39.1887207 C-37.70612672 43.90204224 -37.70612672 43.90204224 -41 45 C-41.33 44.67 -41.66 44.34 -42 44 C-42.39832031 44.6496875 -42.79664063 45.299375 -43.20703125 45.96875 C-44.00173828 47.22171875 -44.00173828 47.22171875 -44.8125 48.5 C-45.33457031 49.3353125 -45.85664063 50.170625 -46.39453125 51.03125 C-46.92433594 51.6809375 -47.45414063 52.330625 -48 53 C-48.99 53 -49.98 53 -51 53 C-50.54713369 48.13168719 -49.41678531 45.51440774 -46 42 C-45.3709375 41.71640625 -44.741875 41.4328125 -44.09375 41.140625 C-41.41568198 39.6816775 -40.14638549 37.92980216 -38.3125 35.5 C-34.79134651 30.95973714 -31.09011975 26.67414956 -27.2109375 22.4375 C-25.79514704 20.87662854 -24.40197027 19.29475379 -23.0390625 17.6875 C-7.99240451 0 -7.99240451 0 0 0 Z " fill="#FF3E6A" transform="translate(240,112)"/>
<path d="M0 0 C1.36301508 4.08904525 0.12814638 5.66465479 -1.6484375 9.44140625 C-3.53200434 13.00711804 -5.72776581 16.33006629 -7.93359375 19.703125 C-10.49470518 23.78928388 -12.85009343 27.97041819 -15.1875 32.1875 C-15.60338379 32.93572021 -16.01926758 33.68394043 -16.44775391 34.45483398 C-19.95309991 40.81256938 -23.4464692 47.19058452 -26 54 C-26.66 54 -27.32 54 -28 54 C-27.50636365 47.15684516 -24.93982583 41.41838767 -22.1875 35.1875 C-21.4613147 33.53874878 -21.4613147 33.53874878 -20.72045898 31.85668945 C-15.57466538 20.53133067 -9.28044062 8.53449504 0 0 Z " fill="#FF3F6B" transform="translate(211,150)"/>
<path d="M0 0 C-3.51684071 7.87907582 -11.72555495 12.00318173 -19 16 C-19.62003906 16.34417969 -20.24007812 16.68835938 -20.87890625 17.04296875 C-25.57259786 19.36258896 -29.90506041 19.31193508 -35 19 C-32.07249677 14.87114077 -29.32449818 12.76380606 -24.84375 10.44921875 C-24.25960327 10.14554886 -23.67545654 9.84187897 -23.0736084 9.52900696 C-21.84604328 8.89422312 -20.61554779 8.26507712 -19.38232422 7.64135742 C-17.49813727 6.68655607 -15.62581324 5.71104131 -13.75390625 4.73242188 C-4.55317409 0 -4.55317409 0 0 0 Z " fill="#FF3B68" transform="translate(235,350)"/>
<path d="M0 0 C3 0.125 3 0.125 4 1.125 C4.04063832 2.79117115 4.042721 4.45888095 4 6.125 C0.625 6.75 0.625 6.75 -3 7.125 C-3.66 6.465 -4.32 5.805 -5 5.125 C-4.40256972 1.18196016 -4.1426006 0.17260836 0 0 Z " fill="#FF466F" transform="translate(174,370.875)"/>
<path d="M0 0 C0.928125 0.20625 1.85625 0.4125 2.8125 0.625 C2.8125 1.945 2.8125 3.265 2.8125 4.625 C1.8125 5.625 1.8125 5.625 -1.75 5.6875 C-2.884375 5.666875 -4.01875 5.64625 -5.1875 5.625 C-5.5175 4.305 -5.8475 2.985 -6.1875 1.625 C-3.1875 -0.375 -3.1875 -0.375 0 0 Z " fill="#FF446E" transform="translate(191.1875,368.375)"/>
<path d="M0 0 C0.66 0 1.32 0 2 0 C1.3827828 3.34953234 0.16796835 5.47878824 -1.875 8.1875 C-2.38804687 8.88230469 -2.90109375 9.57710937 -3.4296875 10.29296875 C-5 12 -5 12 -8 13 C-6.5360077 9.93124691 -4.85990364 7.09565257 -3 4.25 C-2.484375 3.45078125 -1.96875 2.6515625 -1.4375 1.828125 C-0.963125 1.22484375 -0.48875 0.6215625 0 0 Z " fill="#FFDDCA" transform="translate(183,132)"/>
<path d="M0 0 C0.99 0.33 1.98 0.66 3 1 C1.02 3.31 -0.96 5.62 -3 8 C-3.99 7.67 -4.98 7.34 -6 7 C-4.61990379 3.66476748 -3.15049348 1.81392049 0 0 Z " fill="#FF4D73" transform="translate(238,84)"/>
<path d="M0 0 C0.99 0.33 1.98 0.66 3 1 C1.68 4.3 0.36 7.6 -1 11 C-1.66 11 -2.32 11 -3 11 C-2.53199289 6.94393835 -2.12046792 3.53411321 0 0 Z " fill="#FF4D73" transform="translate(186,193)"/>
<path d="M0 0 C0.99 0 1.98 0 3 0 C2.75 2.375 2.75 2.375 2 5 C-0.0625 6.3125 -0.0625 6.3125 -2 7 C-1.125 2.25 -1.125 2.25 0 0 Z " fill="#FF4A71" transform="translate(185,168)"/>
</svg>
