<?xml version="1.0" encoding="UTF-8"?>
<svg version="1.1" xmlns="http://www.w3.org/2000/svg" width="504" height="403">
<path d="M0 0 C166.32 0 332.64 0 504 0 C504 132.99 504 265.98 504 403 C337.68 403 171.36 403 0 403 C0 270.01 0 137.02 0 0 Z " fill="#FDFDF2" transform="translate(0,0)"/>
<path d="M0 0 C1.93405449 -0.00065712 1.93405449 -0.00065712 3.90718079 -0.00132751 C7.3981653 -0.00217833 10.88883226 0.01529659 14.37974381 0.03639436 C18.04454268 0.05531608 21.7093511 0.05692367 25.37419128 0.06047058 C32.29410757 0.06974601 39.21387943 0.09429787 46.1337325 0.12451905 C55.49862702 0.1645192 64.86356182 0.18055437 74.22852039 0.1980257 C88.9547823 0.226123 103.68073964 0.28592207 118.40698242 0.34057617 C118.40698242 23.11057617 118.40698242 45.88057617 118.40698242 69.34057617 C78.14698242 69.34057617 37.88698242 69.34057617 -3.59301758 69.34057617 C-3.59301758 92.11057617 -3.59301758 114.88057617 -3.59301758 138.34057617 C-0.95301758 138.34057617 1.68698242 138.34057617 4.40698242 138.34057617 C19.21560269 140.7985018 33.63614609 146.54492224 44.40698242 157.34057617 C44.40698242 158.00057617 44.40698242 158.66057617 44.40698242 159.34057617 C45.06698242 159.34057617 45.72698242 159.34057617 46.40698242 159.34057617 C60.44969089 175.1587995 65.65400495 193.09438561 64.61401367 213.76049805 C63.18744566 231.5387655 54.96593372 246.08243808 42.40698242 258.34057617 C41.83463867 258.93354492 41.26229492 259.52651367 40.67260742 260.13745117 C28.66321635 271.65160962 11.53594764 276.34057617 -4.59301758 276.34057617 C-4.59301758 230.80057617 -4.59301758 185.26057617 -4.59301758 138.34057617 C-9.54301758 138.01057617 -14.49301758 137.68057617 -19.59301758 137.34057617 C-38.46661421 132.24470508 -54.12284094 121.26051612 -64.34301758 104.46557617 C-73.6726128 87.71905901 -75.89925861 70.04581065 -71.59301758 51.34057617 C-65.88603642 32.39161529 -54.2446699 18.26170932 -37.23364258 8.39135742 C-25.170162 1.99771271 -13.64189231 -0.12390046 0 0 Z " fill="#020202" transform="translate(291.593017578125,63.659423828125)"/>
<path d="M0 0 C20.17672794 0 35.70007086 7.03674775 50.140625 21.08203125 C63.27445438 34.99286199 69.45926558 52.84241096 69.2734375 71.796875 C68.39628208 90.3300401 60.18506757 107.11102445 47 120 C26.86412216 137.54327554 4.42972519 138.61523648 -20.97447896 138.40557575 C-24.57250816 138.38023955 -28.17055685 138.37819514 -31.7686615 138.37347412 C-38.55392099 138.36113748 -45.3389167 138.32844494 -52.12406105 138.28807616 C-61.31275545 138.23461666 -70.50152413 138.21333755 -79.69033527 138.19006729 C-94.12708701 138.15267436 -108.56328265 138.07292294 -123 138 C-123 115.23 -123 92.46 -123 69 C-82.41 69 -41.82 69 0 69 C0 46.23 0 23.46 0 0 Z " fill="#010101" transform="translate(205,202)"/>
<path d="M0 0 C0 45.54 0 91.08 0 138 C-17.40575988 136.91214001 -29.16794146 134.14039427 -43 124 C-43.61875 123.56429687 -44.2375 123.12859375 -44.875 122.6796875 C-54.10583671 115.5428832 -60.97159184 104.80271087 -65 94 C-65.30550781 93.18402344 -65.61101562 92.36804688 -65.92578125 91.52734375 C-72.15310723 73.84882118 -70.40888787 54.42208775 -62.42578125 37.703125 C-58.55646892 30.59585666 -53.69604194 24.71599305 -48 19 C-47.39800781 18.37480469 -46.79601562 17.74960938 -46.17578125 17.10546875 C-33.69223788 5.10935224 -16.93965364 0 0 0 Z " fill="#020202" transform="translate(205,64)"/>
<path d="M0 0 C0 26.07 0 52.14 0 79 C-13.35166447 77.66483355 -23.05905384 74.37297295 -31.85546875 63.76171875 C-39.34739945 53.05103264 -40.77631649 41.82668707 -39 29 C-36.26939233 18.46902847 -29.0842781 9.67194199 -19.88671875 4.12109375 C-12.3593443 0.30875722 -9.12089519 0 0 0 Z " fill="#020202" transform="translate(122,94)"/>
<path d="M0 0 C12.61112565 1.26111257 20.96530102 3.90476702 30 13 C36.25165415 21.14679515 39.39657749 28.44682503 39.375 38.6875 C39.37258301 39.87907715 39.37258301 39.87907715 39.37011719 41.09472656 C39.12785929 52.77535746 34.5392484 62.11678573 26.19921875 70.2578125 C18.01811773 76.73875576 10.21586927 79 0 79 C0 52.93 0 26.86 0 0 Z " fill="#020202" transform="translate(370,231)"/>
<path d="M0 0 C1.2077558 3.62326739 0.54311128 4.64146369 -1 8 C-1.99 7.34 -2.98 6.68 -4 6 C-3.6875 4.125 -3.6875 4.125 -3 2 C-2.01 1.34 -1.02 0.68 0 0 Z " fill="#F2F2EA" transform="translate(142,100)"/>
<path d="M0 0 C1.65 0 3.3 0 5 0 C4.67 2.64 4.34 5.28 4 8 C3.67 7.01 3.34 6.02 3 5 C2.34 5 1.68 5 1 5 C0.67 3.35 0.34 1.7 0 0 Z " fill="#F4F5EF" transform="translate(354,254)"/>
<path d="M0 0 C0.66 0.33 1.32 0.66 2 1 C1.34 1.66 0.68 2.32 0 3 C0 2.01 0 1.02 0 0 Z M-3 2 C-2.34 2.33 -1.68 2.66 -1 3 C-2.65 4.32 -4.3 5.64 -6 7 C-6.66 6.34 -7.32 5.68 -8 5 C-5.625 3.4375 -5.625 3.4375 -3 2 Z " fill="#ECECE9" transform="translate(244,327)"/>
<path d="M0 0 C0.66 0.33 1.32 0.66 2 1 C1.34 2.65 0.68 4.3 0 6 C-0.99 5.34 -1.98 4.68 -3 4 C-2.67 3.01 -2.34 2.02 -2 1 C-1.34 0.67 -0.68 0.34 0 0 Z " fill="#EBEDE4" transform="translate(252,321)"/>
</svg>
